<?xml version="1.0" encoding="UTF-8"?><svg id="Layer_1" xmlns="http://www.w3.org/2000/svg" width="1732.84" height="510.99" viewBox="0 0 1732.84 510.99"><defs><style>.cls-1{fill:none;stroke:#f8f2b1;stroke-width:21.32px;}.cls-2{isolation:isolate;}</style></defs><g id="FRIVILLIG" class="cls-2"><g class="cls-2"><path class="cls-1" d="m182.05,127.3c29.85-.71,47.03-1.07,51.53-1.07,2.61,0,8.41.24,17.41.71,15.87.95,24.99,3.55,27.36,7.82.94,1.9,1.42,3.79,1.42,5.69,0,3.55-.83,5.69-2.49,6.4-3.55,2.13-26.89,3.55-70.01,4.26-32.46.48-50.82,2.25-55.08,5.33-3.08,2.37-7.35,9.06-12.79,20.08-5.45,11.02-9.24,20.79-11.37,29.32-1.42,5.45-1.42,8.77,0,9.95.71.71,2.49,1.07,5.33,1.07,3.31,0,11.25-.89,23.81-2.67,12.55-1.78,21.79-2.67,27.72-2.67,4.97,0,8.76.48,11.37,1.42,5.21,1.9,7.82,5.21,7.82,9.95,0,4.26-1.96,8.3-5.86,12.08-3.91,3.79-9.42,6.75-16.53,8.88-16.82,5.21-35.54,8.65-56.15,10.31-8.77.71-13.62,1.54-14.57,2.49-2.84,2.84-8.41,18.25-16.7,46.2-6.16,20.85-10.37,34.35-12.62,40.51-2.26,6.16-4.44,10.18-6.57,12.08-2.61,2.37-6.16,3.55-10.66,3.55-4.03,0-6.99-.48-8.88-1.42-5.69-2.84-9.6-7.11-11.73-12.79-.24-.71-.36-1.78-.36-3.2,0-2.13,1.07-5.45,3.2-9.95,2.13-4.26,5.8-15.64,11.02-34.12,5.45-20.13,10.07-34.23,13.86-42.29,2.37-4.98,3.67-10.07,3.91-15.28.94-8.53,3.31-14.45,7.11-17.77,1.65-1.65,3.61-4.5,5.86-8.53,2.25-4.03,3.38-6.87,3.38-8.53,0-.94,2.01-5.92,6.04-14.93,4.27-9.71,6.99-16.58,8.17-20.61,5.21-19.42,10.78-30.79,16.7-34.12,10.18-3.31,17.95-5.39,23.28-6.22,5.33-.83,17.35-1.48,36.07-1.95Z"/><path class="cls-1" d="m431.87,117.71c3.08-.94,6.99-1.42,11.73-1.42,8.53,0,15.63,1.31,21.32,3.91,7.82,3.79,14.15,9.66,19.01,17.59,4.85,7.94,7.29,16.29,7.29,25.05,0,1.66-.24,4.39-.71,8.17-4.74,22.51-19.79,39.8-45.13,51.88-13.27,6.16-26.65,9.24-40.16,9.24-8.53,0-13.5.71-14.93,2.13-1.42,1.42-2.13,2.37-2.13,2.84,0,.95,3.43,6.99,10.3,18.12,6.87,11.14,13.03,20.85,18.48,29.14,7.11,10.43,12.91,18.01,17.41,22.74,3.79,4.03,8.41,10.13,13.86,18.3,5.45,8.17,8.88,14.16,10.3,17.95.71,1.66,1.07,3.32,1.07,4.98,0,3.31-1.78,6.04-5.33,8.17-2.61,1.42-5.1,2.13-7.46,2.13-3.55,0-8.41-1.54-14.57-4.62-10.43-5.45-15.63-10.31-15.63-14.57,0-5.45-5.93-16.7-17.77-33.76-5.21-7.34-11.61-16.7-19.19-28.07-4.74-7.34-8.77-11.02-12.08-11.02-4.03,0-6.75,6.16-8.17,18.48-4.74,38.62-8.17,59.47-10.31,62.54-2.61,4.26-7.46,6.4-14.57,6.4-4.03,0-7.59-.95-10.66-2.84l-4.26-2.84.36-12.79c.23-17.53,3.08-36.36,8.53-56.5,6.63-25.11,10.18-38.26,10.66-39.45l4.62-12.79-3.91-9.24c-2.37-5.45-3.55-9.12-3.55-11.02,0-1.18,1.07-2.43,3.2-3.73,2.13-1.3,4.74-2.07,7.82-2.31,4.03-.47,7.22-1.78,9.59-3.91,2.37-2.13,5.33-6.4,8.88-12.79,10.18-18.24,21.91-33.99,35.18-47.26,9.47-9.47,19.78-15.75,30.92-18.83Zm18.12,22.03c-1.66-1.65-3.79-2.49-6.4-2.49-3.32,0-7.35,1.54-12.08,4.62-10.43,6.87-22.87,22.15-37.31,45.84-4.03,6.87-6.04,11.61-6.04,14.21,0,2.13.83,3.68,2.49,4.62,1.89,1.19,3.55,1.78,4.98,1.78,2.37,0,6.87-1.3,13.5-3.91,22.5-8.53,37.07-19.66,43.71-33.4,2.13-4.26,3.2-9,3.2-14.21,0-7.34-2.02-13.03-6.04-17.06Z"/><path class="cls-1" d="m613.11,133.34c3.79-1.65,6.99-2.49,9.6-2.49,3.79,0,7.22,1.54,10.3,4.62,4.74,4.74,7.11,10.66,7.11,17.77,0,3.79-.71,7.46-2.13,11.02-1.42,2.84-4.62,11.49-9.6,25.94-4.03,11.37-8.17,22.27-12.44,32.69-12.56,27.96-19.43,49.87-20.61,65.74-.48,6.64-3.2,16.11-8.17,28.43-4.97,12.32-9.36,20.61-13.15,24.88-4.97,5.92-12.68,10.18-23.1,12.79-4.74,1.18-7.82,1.78-9.24,1.78s-3.44-.95-6.04-2.84c-2.84-2.37-4.27-4.86-4.27-7.46,0-5.45,7.34-28.9,22.03-70.36,6.4-18,9.6-27.95,9.6-29.85.47-2.84,9.12-24.04,25.94-63.61,9.24-21.79,15.1-35.12,17.59-39.98,2.49-4.85,4.68-7.87,6.57-9.06Z"/><path class="cls-1" d="m689.15,131.57c4.03-1.18,7.34-1.78,9.95-1.78,2.37,0,5.45,1.13,9.24,3.38,3.79,2.25,6.75,4.8,8.88,7.64,3.08,4.03,4.98,7.82,5.69,11.37.71,3.55,1.06,11.85,1.06,24.88v41.93c0,7.11.06,12.56.18,16.35.12,3.79.41,6.7.89,8.71.47,2.02,1.01,3.2,1.6,3.55.59.36,1.48.53,2.67.53,1.65,0,7.29-4.85,16.88-14.57,9.6-9.71,16.4-17.53,20.43-23.45,5.69-8.29,12.55-17.41,20.61-27.36,9-11.13,14.57-18.83,16.7-23.1,1.42-3.08,2.6-4.98,3.55-5.69.94-.71,3.08-1.42,6.4-2.13,1.89-.47,4.74-.71,8.53-.71,12.32,0,21.55,3.44,27.72,10.31,2.37,2.37,3.55,4.86,3.55,7.46,0,3.32-4.74,10.43-14.21,21.32-18.48,20.38-47.26,61.72-86.35,124.02-13.98,22.27-22.27,34.7-24.88,37.31-2.61,2.37-5.21,3.55-7.82,3.55h-3.91l-7.46-.71-9.95-10.31c-6.63-7.11-10.9-11.96-12.79-14.57-3.08-4.74-5.04-12.67-5.86-23.81-.83-11.13-1.37-39.21-1.6-84.22-.24-16.35-.36-34.59-.36-54.73v-13.33c0-3.43.23-6.51.71-9.24.47-2.72.65-4.68.53-5.86-.12-1.18.41-2.31,1.6-3.38,1.18-1.07,1.78-1.65,1.78-1.78s.95-.41,2.84-.89c1.89-.47,2.96-.71,3.2-.71Z"/><path class="cls-1" d="m975.58,133.34c3.79-1.65,6.99-2.49,9.6-2.49,3.79,0,7.22,1.54,10.3,4.62,4.74,4.74,7.11,10.66,7.11,17.77,0,3.79-.71,7.46-2.13,11.02-1.42,2.84-4.62,11.49-9.6,25.94-4.03,11.37-8.17,22.27-12.44,32.69-12.56,27.96-19.43,49.87-20.61,65.74-.48,6.64-3.2,16.11-8.17,28.43-4.97,12.32-9.36,20.61-13.15,24.88-4.97,5.92-12.68,10.18-23.1,12.79-4.74,1.18-7.82,1.78-9.24,1.78s-3.44-.95-6.04-2.84c-2.84-2.37-4.27-4.86-4.27-7.46,0-5.45,7.34-28.9,22.03-70.36,6.4-18,9.6-27.95,9.6-29.85.47-2.84,9.12-24.04,25.94-63.61,9.24-21.79,15.1-35.12,17.59-39.98,2.49-4.85,4.68-7.87,6.57-9.06Z"/><path class="cls-1" d="m1104.57,117.71c1.89-2.13,4.5-3.2,7.82-3.2,4.74,0,9.65,1.78,14.75,5.33,5.09,3.55,8.82,7.94,11.2,13.15,1.18,3.08,1.78,6.28,1.78,9.6,0,12.56-7.11,34.24-21.32,65.03-3.55,7.58-8.06,17.89-13.5,30.92-4.27,11.14-8.77,23.69-13.5,37.67-4.74,13.98-7.11,22.03-7.11,24.17,0,1.9.29,3.08.89,3.55.59.48,2.66,1.3,6.22,2.49,3.79.95,13.26,2.61,28.43,4.98,11.37,1.66,18.71,3.14,22.03,4.44,3.31,1.3,5.69,3.61,7.11,6.93.94,2.84,1.42,4.86,1.42,6.04,0,.71-.24,2.49-.71,5.33-1.19,6.64-4.03,11.49-8.53,14.57-3.08,1.89-12.32,2.84-27.72,2.84-7.82,0-14.21-.36-19.19-1.07-16.11-2.61-26.77-5.8-31.98-9.59-1.9-1.42-5.15-5.62-9.77-12.62-4.62-6.99-7.52-12.14-8.71-15.46-.95-2.6-1.42-5.56-1.42-8.88,0-6.87,4.5-23.81,13.5-50.82,12.31-37.19,23.93-67.88,34.83-92.04,5.21-11.37,8.29-21.56,9.24-30.56.47-5.92,1.89-10.18,4.27-12.79Z"/><path class="cls-1" d="m1252.4,117.71c1.89-2.13,4.5-3.2,7.82-3.2,4.74,0,9.65,1.78,14.75,5.33,5.09,3.55,8.82,7.94,11.19,13.15,1.18,3.08,1.78,6.28,1.78,9.6,0,12.56-7.11,34.24-21.32,65.03-3.55,7.58-8.06,17.89-13.5,30.92-4.26,11.14-8.77,23.69-13.5,37.67-4.74,13.98-7.11,22.03-7.11,24.17,0,1.9.29,3.08.89,3.55.59.48,2.67,1.3,6.22,2.49,3.79.95,13.27,2.61,28.43,4.98,11.37,1.66,18.71,3.14,22.03,4.44,3.31,1.3,5.69,3.61,7.11,6.93.94,2.84,1.42,4.86,1.42,6.04,0,.71-.24,2.49-.71,5.33-1.19,6.64-4.03,11.49-8.53,14.57-3.08,1.89-12.32,2.84-27.72,2.84-7.82,0-14.21-.36-19.19-1.07-16.11-2.61-26.78-5.8-31.98-9.59-1.9-1.42-5.15-5.62-9.77-12.62-4.62-6.99-7.52-12.14-8.71-15.46-.95-2.6-1.42-5.56-1.42-8.88,0-6.87,4.5-23.81,13.5-50.82,12.32-37.19,23.93-67.88,34.83-92.04,5.21-11.37,8.29-21.56,9.24-30.56.47-5.92,1.89-10.18,4.26-12.79Z"/><path class="cls-1" d="m1420.13,133.34c3.79-1.65,6.98-2.49,9.59-2.49,3.79,0,7.22,1.54,10.31,4.62,4.74,4.74,7.11,10.66,7.11,17.77,0,3.79-.71,7.46-2.13,11.02-1.42,2.84-4.62,11.49-9.59,25.94-4.03,11.37-8.17,22.27-12.44,32.69-12.56,27.96-19.43,49.87-20.61,65.74-.48,6.64-3.2,16.11-8.17,28.43-4.98,12.32-9.36,20.61-13.15,24.88-4.98,5.92-12.68,10.18-23.1,12.79-4.74,1.18-7.82,1.78-9.24,1.78s-3.44-.95-6.04-2.84c-2.84-2.37-4.26-4.86-4.26-7.46,0-5.45,7.34-28.9,22.03-70.36,6.4-18,9.59-27.95,9.59-29.85.47-2.84,9.12-24.04,25.94-63.61,9.24-21.79,15.1-35.12,17.59-39.98,2.49-4.85,4.68-7.87,6.57-9.06Z"/><path class="cls-1" d="m1595.32,119.84c2.13-.71,3.79-1.07,4.98-1.07,1.65,0,5.92.95,12.79,2.84,10.18,2.61,17.77,6.16,22.74,10.66,3.08,2.84,4.62,5.57,4.62,8.17,0,4.03-2.61,6.4-7.82,7.11-12.56,2.13-24.05,7.94-34.47,17.41-3.55,3.32-10.84,11.08-21.86,23.28-11.02,12.2-17.59,19.85-19.72,22.92-1.66,2.37-3.91,6.28-6.75,11.73-1.42,2.61-5.21,8.88-11.37,18.83-12.56,19.43-18.83,36.37-18.83,50.82,0,5.92,1.06,11.37,3.2,16.35,3.08,7.11,8.65,11.02,16.7,11.73h1.42c8.05,0,20.13-7.82,36.25-23.45,2.13-2.13,5.33-7.46,9.6-15.99,4.26-8.53,6.75-14.69,7.46-18.48,0-.23.12-.59.36-1.07v-.71c0-3.79-4.74-6.4-14.21-7.82-7.82-1.18-13.63-3.2-17.41-6.04-3.79-2.84-6.16-6.87-7.11-12.08-.24-1.65-.12-2.9.36-3.73.47-.83,2.01-1.83,4.62-3.02,7.34-3.31,26.06-4.98,56.15-4.98,23.22,0,37.55.83,43,2.49,14.45,4.5,24.16,10.31,29.14,17.41,1.89,2.61,2.96,4.74,3.2,6.4.23,1.66.36,6.16.36,13.5s-.24,12.79-.71,15.64c-.48,2.84-2.02,7.7-4.62,14.57-13.5,37.67-22.63,65.62-27.36,83.87-5.21,19.66-9.83,31.5-13.86,35.54-2.13,2.13-5.57,3.2-10.3,3.2-6.64,0-12.44-1.95-17.41-5.86s-7.46-8.83-7.46-14.75c0-7.11,3.79-21.68,11.37-43.71,2.84-7.34,4.97-14.33,6.4-20.97,1.18-5.45,4.03-12.55,8.53-21.32,3.08-5.92,5.69-13.26,7.82-22.03,2.13-8.76,3.55-14.33,4.27-16.7,1.89-5.69,2.84-10.42,2.84-14.21,0-6.87-2.96-10.31-8.88-10.31h-2.13c-4.5.24-6.75,1.66-6.75,4.26,0,.95.59,2.61,1.78,4.98,2.37,4.03,3.55,8.29,3.55,12.79,0,4.74-2.02,12.08-6.04,22.03-4.74,11.14-11.85,22.21-21.32,33.23-9.48,11.02-18.25,18.54-26.3,22.57-3.79,1.89-6.75,3.02-8.88,3.38s-6.63.53-13.5.53c-15.64,0-29.38-3.91-41.22-11.73-10.66-7.11-19.19-15.75-25.59-25.94-6.4-10.18-9.6-20.37-9.6-30.56,0-8.29,5.56-26.3,16.7-54.02,4.5-11.37,10.54-21.68,18.12-30.92,3.31-4.26,7.64-10.01,12.97-17.24,5.33-7.22,10.07-13.38,14.21-18.48,4.14-5.09,8.94-10.6,14.39-16.52,13.03-13.98,23.57-22.15,31.63-24.52Z"/></g></g></svg>