<?xml version="1.0" encoding="UTF-8"?><svg id="Layer_1" xmlns="http://www.w3.org/2000/svg" viewBox="0 0 1260.29 261.61"><defs><style>.cls-1{fill:none;stroke:#f8f2b1;stroke-width:15px;}.cls-2{isolation:isolate;}</style></defs><g id="FRIVILLIG" class="cls-2"><g class="cls-2"><path class="cls-1" d="m142.28,32.81c21-.5,33.08-.75,36.25-.75,1.83,0,5.91.17,12.25.5,11.16.67,17.58,2.5,19.25,5.5.66,1.34,1,2.67,1,4,0,2.5-.59,4-1.75,4.5-2.5,1.5-18.92,2.5-49.25,3-22.84.34-35.75,1.59-38.75,3.75-2.17,1.67-5.17,6.38-9,14.12-3.84,7.75-6.5,14.62-8,20.62-1,3.84-1,6.17,0,7,.5.5,1.75.75,3.75.75,2.33,0,7.91-.62,16.75-1.88,8.83-1.25,15.33-1.88,19.5-1.88,3.5,0,6.16.34,8,1,3.66,1.34,5.5,3.67,5.5,7,0,3-1.38,5.84-4.12,8.5-2.75,2.67-6.62,4.75-11.62,6.25-11.84,3.67-25,6.09-39.5,7.25-6.17.5-9.59,1.09-10.25,1.75-2,2-5.92,12.84-11.75,32.5-4.34,14.67-7.29,24.17-8.88,28.5-1.59,4.33-3.12,7.16-4.62,8.5-1.84,1.66-4.34,2.5-7.5,2.5-2.84,0-4.92-.34-6.25-1-4-2-6.75-5-8.25-9-.17-.5-.25-1.25-.25-2.25,0-1.5.75-3.83,2.25-7,1.5-3,4.08-11,7.75-24,3.83-14.16,7.08-24.08,9.75-29.75,1.66-3.5,2.58-7.08,2.75-10.75.66-6,2.33-10.16,5-12.5,1.16-1.16,2.54-3.16,4.12-6,1.58-2.83,2.38-4.83,2.38-6,0-.66,1.41-4.16,4.25-10.5,3-6.83,4.91-11.66,5.75-14.5,3.66-13.66,7.58-21.66,11.75-24,7.16-2.33,12.62-3.79,16.38-4.38,3.75-.58,12.21-1.04,25.38-1.38Z"/><path class="cls-1" d="m318.03,26.06c2.16-.66,4.91-1,8.25-1,6,0,11,.92,15,2.75,5.5,2.67,9.96,6.79,13.38,12.38,3.41,5.59,5.12,11.46,5.12,17.62,0,1.17-.17,3.09-.5,5.75-3.34,15.84-13.92,28-31.75,36.5-9.34,4.34-18.75,6.5-28.25,6.5-6,0-9.5.5-10.5,1.5s-1.5,1.67-1.5,2c0,.67,2.41,4.92,7.25,12.75,4.83,7.84,9.16,14.67,13,20.5,5,7.34,9.08,12.67,12.25,16,2.66,2.84,5.91,7.12,9.75,12.88,3.83,5.75,6.25,9.96,7.25,12.62.5,1.16.75,2.33.75,3.5,0,2.33-1.25,4.25-3.75,5.75-1.84,1-3.59,1.5-5.25,1.5-2.5,0-5.92-1.09-10.25-3.25-7.34-3.84-11-7.25-11-10.25,0-3.83-4.17-11.75-12.5-23.75-3.67-5.16-8.17-11.75-13.5-19.75-3.34-5.16-6.17-7.75-8.5-7.75-2.84,0-4.75,4.34-5.75,13-3.34,27.17-5.75,41.84-7.25,44-1.84,3-5.25,4.5-10.25,4.5-2.84,0-5.34-.67-7.5-2l-3-2,.25-9c.16-12.33,2.16-25.58,6-39.75,4.66-17.66,7.16-26.91,7.5-27.75l3.25-9-2.75-6.5c-1.67-3.83-2.5-6.41-2.5-7.75,0-.83.75-1.71,2.25-2.62,1.5-.91,3.33-1.46,5.5-1.62,2.83-.33,5.08-1.25,6.75-2.75,1.66-1.5,3.75-4.5,6.25-9,7.16-12.83,15.41-23.91,24.75-33.25,6.66-6.66,13.91-11.08,21.75-13.25Zm12.75,15.5c-1.17-1.16-2.67-1.75-4.5-1.75-2.34,0-5.17,1.09-8.5,3.25-7.34,4.84-16.09,15.59-26.25,32.25-2.84,4.84-4.25,8.17-4.25,10,0,1.5.58,2.59,1.75,3.25,1.33.84,2.5,1.25,3.5,1.25,1.66,0,4.83-.91,9.5-2.75,15.83-6,26.08-13.83,30.75-23.5,1.5-3,2.25-6.33,2.25-10,0-5.16-1.42-9.16-4.25-12Z"/><path class="cls-1" d="m445.53,37.06c2.66-1.16,4.91-1.75,6.75-1.75,2.66,0,5.08,1.09,7.25,3.25,3.33,3.34,5,7.5,5,12.5,0,2.67-.5,5.25-1.5,7.75-1,2-3.25,8.09-6.75,18.25-2.84,8-5.75,15.67-8.75,23-8.84,19.67-13.67,35.09-14.5,46.25-.34,4.67-2.25,11.34-5.75,20-3.5,8.67-6.59,14.5-9.25,17.5-3.5,4.16-8.92,7.16-16.25,9-3.34.83-5.5,1.25-6.5,1.25s-2.42-.67-4.25-2c-2-1.67-3-3.42-3-5.25,0-3.83,5.16-20.33,15.5-49.5,4.5-12.66,6.75-19.66,6.75-21,.33-2,6.41-16.91,18.25-44.75,6.5-15.33,10.62-24.71,12.38-28.12,1.75-3.41,3.29-5.54,4.62-6.38Z"/><path class="cls-1" d="m499.02,35.81c2.83-.83,5.16-1.25,7-1.25,1.66,0,3.83.79,6.5,2.38,2.66,1.59,4.75,3.38,6.25,5.38,2.16,2.84,3.5,5.5,4,8s.75,8.34.75,17.5v29.5c0,5,.04,8.84.12,11.5.08,2.67.29,4.71.62,6.12.33,1.42.71,2.25,1.12,2.5.41.25,1.04.38,1.88.38,1.16,0,5.12-3.41,11.88-10.25,6.75-6.83,11.54-12.33,14.38-16.5,4-5.83,8.83-12.25,14.5-19.25,6.33-7.83,10.25-13.25,11.75-16.25,1-2.16,1.83-3.5,2.5-4,.66-.5,2.16-1,4.5-1.5,1.33-.33,3.33-.5,6-.5,8.66,0,15.16,2.42,19.5,7.25,1.66,1.67,2.5,3.42,2.5,5.25,0,2.34-3.34,7.34-10,15-13,14.34-33.25,43.42-60.75,87.25-9.84,15.67-15.67,24.41-17.5,26.25-1.84,1.66-3.67,2.5-5.5,2.5h-2.75l-5.25-.5-7-7.25c-4.67-5-7.67-8.41-9-10.25-2.17-3.33-3.54-8.91-4.12-16.75-.59-7.83-.96-27.58-1.12-59.25-.17-11.5-.25-24.33-.25-38.5v-9.38c0-2.41.16-4.58.5-6.5.33-1.91.46-3.29.38-4.12-.09-.83.29-1.62,1.12-2.38.83-.75,1.25-1.16,1.25-1.25s.66-.29,2-.62c1.33-.33,2.08-.5,2.25-.5Z"/><path class="cls-1" d="m700.52,37.06c2.66-1.16,4.91-1.75,6.75-1.75,2.66,0,5.08,1.09,7.25,3.25,3.33,3.34,5,7.5,5,12.5,0,2.67-.5,5.25-1.5,7.75-1,2-3.25,8.09-6.75,18.25-2.84,8-5.75,15.67-8.75,23-8.84,19.67-13.67,35.09-14.5,46.25-.34,4.67-2.25,11.34-5.75,20-3.5,8.67-6.59,14.5-9.25,17.5-3.5,4.16-8.92,7.16-16.25,9-3.34.83-5.5,1.25-6.5,1.25s-2.42-.67-4.25-2c-2-1.67-3-3.42-3-5.25,0-3.83,5.16-20.33,15.5-49.5,4.5-12.66,6.75-19.66,6.75-21,.33-2,6.41-16.91,18.25-44.75,6.5-15.33,10.62-24.71,12.38-28.12,1.75-3.41,3.29-5.54,4.62-6.38Z"/><path class="cls-1" d="m791.27,26.06c1.33-1.5,3.16-2.25,5.5-2.25,3.33,0,6.79,1.25,10.38,3.75,3.58,2.5,6.21,5.59,7.88,9.25.83,2.17,1.25,4.42,1.25,6.75,0,8.84-5,24.09-15,45.75-2.5,5.34-5.67,12.59-9.5,21.75-3,7.84-6.17,16.67-9.5,26.5-3.34,9.84-5,15.5-5,17,0,1.34.21,2.17.62,2.5.41.34,1.88.92,4.38,1.75,2.66.67,9.33,1.84,20,3.5,8,1.17,13.16,2.21,15.5,3.12,2.33.92,4,2.54,5,4.88.66,2,1,3.42,1,4.25,0,.5-.17,1.75-.5,3.75-.84,4.67-2.84,8.08-6,10.25-2.17,1.33-8.67,2-19.5,2-5.5,0-10-.25-13.5-.75-11.34-1.84-18.84-4.08-22.5-6.75-1.34-1-3.62-3.96-6.88-8.88-3.25-4.91-5.29-8.54-6.12-10.88-.67-1.83-1-3.91-1-6.25,0-4.83,3.16-16.75,9.5-35.75,8.66-26.16,16.83-47.75,24.5-64.75,3.66-8,5.83-15.16,6.5-21.5.33-4.16,1.33-7.16,3-9Z"/><path class="cls-1" d="m895.27,26.06c1.33-1.5,3.16-2.25,5.5-2.25,3.33,0,6.79,1.25,10.38,3.75,3.58,2.5,6.21,5.59,7.88,9.25.83,2.17,1.25,4.42,1.25,6.75,0,8.84-5,24.09-15,45.75-2.5,5.34-5.67,12.59-9.5,21.75-3,7.84-6.17,16.67-9.5,26.5-3.34,9.84-5,15.5-5,17,0,1.34.21,2.17.62,2.5.41.34,1.88.92,4.38,1.75,2.66.67,9.33,1.84,20,3.5,8,1.17,13.16,2.21,15.5,3.12,2.33.92,4,2.54,5,4.88.66,2,1,3.42,1,4.25,0,.5-.17,1.75-.5,3.75-.84,4.67-2.84,8.08-6,10.25-2.17,1.33-8.67,2-19.5,2-5.5,0-10-.25-13.5-.75-11.34-1.84-18.84-4.08-22.5-6.75-1.34-1-3.62-3.96-6.88-8.88-3.25-4.91-5.29-8.54-6.12-10.88-.67-1.83-1-3.91-1-6.25,0-4.83,3.16-16.75,9.5-35.75,8.66-26.16,16.83-47.75,24.5-64.75,3.66-8,5.83-15.16,6.5-21.5.33-4.16,1.33-7.16,3-9Z"/><path class="cls-1" d="m1013.27,37.06c2.66-1.16,4.91-1.75,6.75-1.75,2.66,0,5.08,1.09,7.25,3.25,3.33,3.34,5,7.5,5,12.5,0,2.67-.5,5.25-1.5,7.75-1,2-3.25,8.09-6.75,18.25-2.84,8-5.75,15.67-8.75,23-8.84,19.67-13.67,35.09-14.5,46.25-.34,4.67-2.25,11.34-5.75,20-3.5,8.67-6.59,14.5-9.25,17.5-3.5,4.16-8.92,7.16-16.25,9-3.34.83-5.5,1.25-6.5,1.25s-2.42-.67-4.25-2c-2-1.67-3-3.42-3-5.25,0-3.83,5.16-20.33,15.5-49.5,4.5-12.66,6.75-19.66,6.75-21,.33-2,6.41-16.91,18.25-44.75,6.5-15.33,10.62-24.71,12.38-28.12,1.75-3.41,3.29-5.54,4.62-6.38Z"/><path class="cls-1" d="m1136.51,27.56c1.5-.5,2.66-.75,3.5-.75,1.16,0,4.16.67,9,2,7.16,1.84,12.5,4.34,16,7.5,2.16,2,3.25,3.92,3.25,5.75,0,2.84-1.84,4.5-5.5,5-8.84,1.5-16.92,5.59-24.25,12.25-2.5,2.34-7.62,7.79-15.38,16.38-7.75,8.59-12.38,13.96-13.88,16.12-1.17,1.67-2.75,4.42-4.75,8.25-1,1.84-3.67,6.25-8,13.25-8.84,13.67-13.25,25.59-13.25,35.75,0,4.17.75,8,2.25,11.5,2.16,5,6.08,7.75,11.75,8.25h1c5.66,0,14.16-5.5,25.5-16.5,1.5-1.5,3.75-5.25,6.75-11.25s4.75-10.33,5.25-13c0-.16.08-.41.25-.75v-.5c0-2.66-3.34-4.5-10-5.5-5.5-.83-9.59-2.25-12.25-4.25-2.67-2-4.34-4.83-5-8.5-.17-1.16-.09-2.04.25-2.62.33-.58,1.41-1.29,3.25-2.12,5.16-2.33,18.33-3.5,39.5-3.5,16.33,0,26.41.59,30.25,1.75,10.16,3.17,17,7.25,20.5,12.25,1.33,1.84,2.08,3.34,2.25,4.5.16,1.17.25,4.34.25,9.5s-.17,9-.5,11c-.34,2-1.42,5.42-3.25,10.25-9.5,26.5-15.92,46.16-19.25,59-3.67,13.83-6.92,22.16-9.75,25-1.5,1.5-3.92,2.25-7.25,2.25-4.67,0-8.75-1.38-12.25-4.12s-5.25-6.21-5.25-10.38c0-5,2.66-15.25,8-30.75,2-5.16,3.5-10.08,4.5-14.75.83-3.83,2.83-8.83,6-15,2.16-4.16,4-9.33,5.5-15.5,1.5-6.16,2.5-10.08,3-11.75,1.33-4,2-7.33,2-10,0-4.83-2.09-7.25-6.25-7.25h-1.5c-3.17.17-4.75,1.17-4.75,3,0,.67.41,1.84,1.25,3.5,1.66,2.84,2.5,5.84,2.5,9,0,3.34-1.42,8.5-4.25,15.5-3.34,7.84-8.34,15.62-15,23.38-6.67,7.75-12.84,13.04-18.5,15.88-2.67,1.33-4.75,2.12-6.25,2.38s-4.67.38-9.5.38c-11,0-20.67-2.75-29-8.25-7.5-5-13.5-11.08-18-18.25-4.5-7.16-6.75-14.33-6.75-21.5,0-5.83,3.91-18.5,11.75-38,3.16-8,7.41-15.25,12.75-21.75,2.33-3,5.38-7.04,9.12-12.12,3.75-5.08,7.08-9.41,10-13,2.91-3.58,6.29-7.46,10.12-11.62,9.16-9.83,16.58-15.58,22.25-17.25Z"/></g></g></svg>