<?xml version="1.0" encoding="UTF-8"?><svg id="Layer_1" xmlns="http://www.w3.org/2000/svg" width="1272" height="521" viewBox="0 0 1272 521"><defs><style>.cls-1{fill:none;stroke:#f8f2b1;stroke-width:15px;}.cls-2{isolation:isolate;}</style></defs><g id="ALIVE" class="cls-2"><g class="cls-2"><path class="cls-1" d="m227.87,96.79l6.78-7.63,14.84.42c12.15.57,20.21,2.33,24.17,5.3,3.96,2.97,7.06,9.4,9.33,19.29,1.97,7.63,2.97,19.37,2.97,35.19,0,26.29-2.54,59.51-7.63,99.64-1.98,15.55-2.97,26.44-2.97,32.65,0,5.66,1.13,10.6,3.39,14.84,2.54,4.81,3.82,8.2,3.82,10.18,0,2.27-1.56,5.66-4.66,10.18-3.68,5.37-5.66,8.76-5.94,10.18-1.13,4.52-2.4,19.79-3.82,45.79-1.98,28.55-3.82,43.95-5.51,46.22-3.39,5.09-9.33,7.63-17.81,7.63-4.81,0-8.69-1.13-11.66-3.39-2.97-2.27-6.01-6.65-9.12-13.14-2.83-5.66-4.24-11.59-4.24-17.81,0-3.39.7-11.73,2.12-25.02.85-7.63,1.27-13.99,1.27-19.08,0-9.89-2.83-15.83-8.48-17.81h-2.97c-3.96,0-11.87.29-23.74.85-11.87.57-22.97,1.13-33.28,1.7-10.32.57-15.62.85-15.9.85-3.11,0-5.94,2.27-8.48,6.78-2.54,4.53-7.63,16.11-15.26,34.77-7.63,18.93-13.22,31.38-16.75,37.31-3.54,5.94-7.28,8.9-11.24,8.9-2.27,0-4.66-.57-7.21-1.7-4.52-1.7-8.63-4.52-12.3-8.48-3.68-3.96-6.08-7.92-7.21-11.87-.57-2.27-.85-3.82-.85-4.66,0-3.11,2.4-11.87,7.21-26.29,5.37-16.11,21.2-50.73,47.49-103.88,4.52-9.89,9.61-19.22,15.26-27.98,5.65-8.76,12.3-18.44,19.93-29.04,7.63-10.6,13.85-19.57,18.66-26.92,3.39-5.09,8.12-12.51,14.2-22.26,6.07-9.75,9.82-15.62,11.24-17.6,9.33-14.69,20.78-29.4,34.34-44.1Zm7.21,67.84c-.85-1.13-1.98-1.7-3.39-1.7-3.11,0-5.94,1.56-8.48,4.66-7.07,9.05-22.19,35.19-45.37,78.44-2.54,4.81-5.72,10.67-9.54,17.6-3.82,6.93-6.65,12.08-8.48,15.48-1.84,3.39-2.9,5.37-3.18,5.94-1.13,1.42-1.7,3.11-1.7,5.09,0,2.54,1.41,4.81,4.24,6.78,1.7.85,5.65,1.27,11.87,1.27,17.52,0,33.21-1.83,47.06-5.51,3.67-1.13,6.08-4.17,7.21-9.12,1.13-4.94,3.11-19.86,5.94-44.73,3.11-27.98,4.66-49.46,4.66-64.45,0-5.37-.28-8.62-.85-9.75Z"/><path class="cls-1" d="m406.37,112.06c2.26-2.54,5.37-3.82,9.33-3.82,5.65,0,11.51,2.12,17.6,6.36,6.08,4.24,10.53,9.47,13.36,15.69,1.41,3.68,2.12,7.49,2.12,11.45,0,14.99-8.48,40.85-25.44,77.59-4.24,9.05-9.61,21.35-16.11,36.89-5.09,13.29-10.46,28.27-16.11,44.94-5.66,16.68-8.48,26.29-8.48,28.83,0,2.27.35,3.68,1.06,4.24.7.57,3.18,1.56,7.42,2.97,4.52,1.13,15.83,3.11,33.92,5.94,13.57,1.98,22.33,3.75,26.29,5.3,3.96,1.56,6.78,4.31,8.48,8.27,1.13,3.39,1.7,5.8,1.7,7.21,0,.85-.29,2.97-.85,6.36-1.42,7.92-4.81,13.71-10.18,17.38-3.68,2.26-14.7,3.39-33.07,3.39-9.33,0-16.96-.42-22.9-1.27-19.23-3.11-31.95-6.92-38.16-11.45-2.27-1.7-6.15-6.71-11.66-15.05-5.51-8.33-8.98-14.48-10.39-18.44-1.13-3.11-1.7-6.64-1.7-10.6,0-8.2,5.37-28.41,16.11-60.63,14.69-44.38,28.55-80.98,41.55-109.82,6.21-13.57,9.89-25.72,11.02-36.46.56-7.06,2.26-12.15,5.09-15.26Z"/><path class="cls-1" d="m606.49,130.71c4.52-1.97,8.33-2.97,11.45-2.97,4.52,0,8.62,1.84,12.3,5.51,5.65,5.66,8.48,12.72,8.48,21.2,0,4.53-.85,8.9-2.54,13.14-1.7,3.39-5.51,13.71-11.45,30.95-4.81,13.57-9.75,26.57-14.84,39.01-14.99,33.36-23.18,59.51-24.59,78.44-.57,7.92-3.82,19.23-9.75,33.92-5.94,14.7-11.17,24.59-15.69,29.68-5.94,7.06-15.12,12.15-27.56,15.26-5.66,1.41-9.33,2.12-11.02,2.12s-4.1-1.13-7.21-3.39c-3.39-2.83-5.09-5.8-5.09-8.9,0-6.5,8.76-34.48,26.29-83.95,7.63-21.48,11.45-33.35,11.45-35.62.56-3.39,10.88-28.69,30.95-75.9,11.02-26,18.02-41.9,20.99-47.7,2.97-5.79,5.58-9.39,7.84-10.81Z"/><path class="cls-1" d="m697.22,128.59c4.8-1.41,8.76-2.12,11.87-2.12,2.82,0,6.5,1.34,11.02,4.03,4.52,2.69,8.06,5.72,10.6,9.12,3.67,4.81,5.94,9.33,6.78,13.57.85,4.24,1.27,14.14,1.27,29.68v50.03c0,8.48.07,14.99.21,19.5.14,4.52.49,7.99,1.06,10.39.56,2.41,1.2,3.82,1.91,4.24.7.42,1.76.64,3.18.64,1.97,0,8.69-5.79,20.14-17.38,11.45-11.59,19.57-20.92,24.38-27.98,6.78-9.89,14.98-20.78,24.59-32.65,10.74-13.28,17.38-22.47,19.93-27.56,1.7-3.67,3.11-5.94,4.24-6.78,1.13-.85,3.67-1.7,7.63-2.54,2.26-.56,5.65-.85,10.18-.85,14.69,0,25.72,4.1,33.07,12.3,2.82,2.83,4.24,5.8,4.24,8.9,0,3.96-5.66,12.44-16.96,25.44-22.05,24.31-56.39,73.64-103.03,147.98-16.68,26.57-26.57,41.41-29.68,44.52-3.11,2.82-6.22,4.24-9.33,4.24h-4.66l-8.9-.85-11.87-12.3c-7.92-8.48-13-14.27-15.26-17.38-3.68-5.65-6.01-15.12-7-28.41-.99-13.28-1.63-46.78-1.91-100.49-.28-19.5-.42-41.27-.42-65.3v-15.9c0-4.09.28-7.77.85-11.02.56-3.25.77-5.58.64-7-.15-1.41.49-2.76,1.91-4.03,1.41-1.27,2.12-1.97,2.12-2.12s1.13-.49,3.39-1.06c2.26-.56,3.53-.85,3.82-.85Z"/><path class="cls-1" d="m1112.74,130.29c7.91-.56,20.92-.85,39.01-.85,10.74,0,16.54.15,17.38.42,3.67.85,5.51,3.82,5.51,8.9,0,1.7-.42,3.68-1.27,5.94-3.11,6.22-13.14,11.73-30.1,16.54-29.4,8.2-55.12,13.57-77.17,16.11l-8.06.42-6.78,10.6c-3.68,5.94-8.41,14.77-14.2,26.5-5.8,11.73-8.98,19.15-9.54,22.26-.57,2.54.28,4.95,2.54,7.21,1.7,1.7,4.24,2.54,7.63,2.54,3.96,0,7.63-.14,11.02-.42,19.78-.85,38.44-4.38,55.97-10.6,5.65-2.26,10.6-3.39,14.84-3.39,4.52,0,7.77,1.98,9.75,5.94,1.41,2.83,2.12,5.37,2.12,7.63,0,9.33-6.22,17.11-18.66,23.32-7.35,3.96-14.91,6.72-22.68,8.27-7.78,1.56-22.26,3.18-43.46,4.88-25.73,1.98-39.58,3.39-41.55,4.24-2.27.85-5.37,5.51-9.33,13.99-6.51,14.14-9.75,27.28-9.75,39.43v5.09c.28,5.94.64,9.69,1.06,11.24.42,1.56,1.91,3.6,4.45,6.15,3.39,3.39,8.33,5.66,14.84,6.78,4.52.57,8.2.85,11.02.85,24.31,0,49.89-5.79,76.74-17.38,9.33-3.96,15.4-5.94,18.23-5.94,2.54,0,4.66,1.13,6.36,3.39,1.41,1.42,2.12,3.82,2.12,7.21,0,9.9-4.66,19.23-13.99,27.98-12.44,11.3-29.96,18.23-52.58,20.78-6.22.56-10.75.85-13.57.85-22.9,0-42.97-6.36-60.21-19.08-17.25-12.72-29.26-30.24-36.04-52.58-1.98-7.35-2.97-12.86-2.97-16.54,0-7.91,4.09-22.05,12.3-42.4,13.85-34.48,25.16-58.65,33.92-72.5,9.89-15.54,16.11-28.55,18.66-39.01,2.54-9.89,6.78-16.25,12.72-19.08,2.26-1.13,15.9-3.74,40.92-7.84,25.02-4.09,42.61-6.71,52.79-7.84Z"/></g></g></svg>